<svg xmlns="http://www.w3.org/2000/svg" version="1.1" xmlns:xlink="http://www.w3.org/1999/xlink" xmlns:svgjs="http://svgjs.dev/svgjs" width="1000" height="606" viewBox="0 0 1000 606"><g transform="matrix(1,0,0,1,-0.6056348047761162,-0.34627484057972424)"><svg viewBox="0 0 396 240" data-background-color="#ffffff" preserveAspectRatio="xMidYMid meet" height="606" width="1000" xmlns="http://www.w3.org/2000/svg" xmlns:xlink="http://www.w3.org/1999/xlink"><g id="tight-bounds" transform="matrix(1,0,0,1,0.24008861730862918,0.13713855072464298)"><svg viewBox="0 0 395.52 239.7257228985507" height="239.7257228985507" width="395.52"><g><svg viewBox="0 0 395.52 239.7257228985507" height="239.7257228985507" width="395.52"><g><svg viewBox="0 0 395.52 239.7257228985507" height="239.7257228985507" width="395.52"><g><svg viewBox="0 0 395.52 239.7257228985507" height="239.7257228985507" width="395.52" id="textblock"><g><svg viewBox="0 0 395.52 239.7257228985507" height="239.7257228985507" width="395.52"><path d="M394.594 51.417C392.735 26.533 387.435 19.616 387.435 19.616 371.165-6.014 350.86-0.49 332.619 3.192 300.414 3.342 268.339 8.816 236.208 11.752 168.767 12.2 100.749 4.835 33.643 23 27.339 28.574-6.54 24.095 1.121 54.602 3.129 67.292 10.456 81.376 10.232 93.022 11.236 95.062 12.631 90.384 13.226 93.32 15.309 101.233 18.711 97.501 21.501 102.179 17.614 114.67 20.403 125.072 23.062 135.971 18.377 138.807 12.371 137.464 9.675 146.869 9.396 153.688 7.89 152.394 6.235 152.095 5.026 151.896 2.59 152.642 2.999 154.782 4.394 162.098-1.594 166.328 2.162 173.495-0.422 181.258 3.948 187.977 3.353 196.388 3.278 198.08 3.687 199.523 4.338 199.921 7.22 202.061 3.018 206.241 3.464 210.77 33.029 241.725 65.104 220.325 95.394 234.559 103.259 224.605 97.346 238.092 100.489 236.002 102.943 233.563 104.728 243.666 107.499 237.943 107.927 236.301 107.276 232.419 108.8 233.165 109.6 233.563 110.307 233.464 110.418 231.175 110.586 227.741 109.117 229.881 108.726 228.089 112.947 219.031 111.906 240.581 115.866 239.685 115.68 237.047 114.528 233.265 116.889 233.762 119.232 229.98 119.306 226.845 121.389 235.355 121.463 237.196 121.835 238.49 122.43 239.386 128.938 230.129 135.409 242.671 142.233 238.49 146.417 233.912 150.433 240.979 154.672 239.237 156.16 237.843 157.666 235.355 159.098 239.535 176.632 240.431 195.319 236.699 211.943 239.685 256.364 234.111 303.835 241.974 350.674 234.609 361.719 231.772 373.192 227.741 383.958 224.506 383.958 224.506 392.679 215.647 392.679 175.834S394.538 140.997 394.817 109.295C395.096 77.594 396.398 76.3 394.538 51.417Z" opacity="1" fill="#398378" data-fill-palette-color="tertiary"></path><g transform="matrix(1,0,0,1,55.76832,26.230666666666668)"><svg width="283.98335999999995" viewBox="1.5 -35.70000076293945 55.20000076293945 36.400001525878906" height="187.26438956521739" data-palette-color="#ffffff"><path d="M17.25 0.7Q12.6 0.7 9.05-1.53 5.5-3.75 3.5-7.88 1.5-12 1.5-17.5L1.5-17.5Q1.5-22.95 3.53-27.1 5.55-31.25 9.13-33.48 12.7-35.7 17.2-35.7L17.2-35.7Q21.35-35.7 24.9-34.15L24.9-34.15 24.3-29.05Q22.7-29.85 21.23-30.25 19.75-30.65 18.05-30.65L18.05-30.65Q12.95-30.65 10.13-27.03 7.3-23.4 7.3-17.5L7.3-17.5Q7.3-11.6 10.13-7.98 12.95-4.35 18.05-4.35L18.05-4.35Q21.15-4.35 24.3-5.85L24.3-5.85 24.9-0.8Q21.65 0.7 17.25 0.7L17.25 0.7ZM41.9 0.7Q37.6 0.7 34.22-1.55 30.85-3.8 28.95-7.93 27.05-12.05 27.05-17.5L27.05-17.5Q27.05-22.95 28.95-27.08 30.85-31.2 34.22-33.45 37.6-35.7 41.9-35.7L41.9-35.7Q46.2-35.7 49.55-33.45 52.9-31.2 54.8-27.08 56.7-22.95 56.7-17.5L56.7-17.5Q56.7-12.05 54.8-7.93 52.9-3.8 49.55-1.55 46.2 0.7 41.9 0.7L41.9 0.7ZM41.9-4.55Q46.35-4.55 48.75-8.15 51.15-11.75 51.15-17.5L51.15-17.5Q51.15-23.25 48.75-26.85 46.35-30.45 41.9-30.45L41.9-30.45Q37.45-30.45 35.05-26.85 32.65-23.25 32.65-17.5L32.65-17.5Q32.65-11.75 35.05-8.15 37.45-4.55 41.9-4.55L41.9-4.55Z" opacity="1" transform="matrix(1,0,0,1,0,0)" fill="#ffffff" class="undefined-text-0" data-fill-palette-color="quaternary" id="text-0"></path></svg></g></svg></g></svg></g></svg></g><g></g></svg></g><defs></defs></svg><rect width="395.52" height="239.7257228985507" fill="none" stroke="none" visibility="hidden"></rect></g></svg></g></svg>